Coordinates
version=1
nRows=13
nColumns=40
inDegrees=yes

Units are S.I. units (second, meters, Newtons, ...)
If the header above contains a line with 'inDegrees', this indicates whether rotational values are in degrees (yes) or radians (no).

endheader
time	pelvis_tilt	pelvis_list	pelvis_rotation	pelvis_tx	pelvis_ty	pelvis_tz	hip_flexion_r	hip_adduction_r	hip_rotation_r	knee_angle_r	knee_angle_r_beta	ankle_angle_r	subtalar_angle_r	mtp_angle_r	hip_flexion_l	hip_adduction_l	hip_rotation_l	knee_angle_l	knee_angle_l_beta	ankle_angle_l	subtalar_angle_l	mtp_angle_l	lumbar_extension	lumbar_bending	lumbar_rotation	arm_flex_r	arm_add_r	arm_rot_r	elbow_flex_r	pro_sup_r	wrist_flex_r	wrist_dev_r	arm_flex_l	arm_add_l	arm_rot_l	elbow_flex_l	pro_sup_l	wrist_flex_l	wrist_dev_l
      0.00000000	     16.21803112	      4.28424290	      5.16853743	      0.03262168	      0.94351816	     -0.32196680	     12.51371178	     -3.19805516	     -6.77787615	      9.55012954	      0.16668120	    -14.15978508	      0.00000000	      0.00000000	    -29.53334276	      6.45379264	      3.38771843	     14.56907048	      0.25427825	      3.54717633	      0.00000000	      0.00000000	    -31.30211839	     -1.38581051	    -12.51884626	      1.98454783	    -12.20101492	      5.39490994	     36.91013118	     80.52723877	      0.00000000	      0.00000000	     12.62749123	    -29.39779670	     26.01837533	     56.95706021	     72.82161106	      0.00000000	      0.00000000
      0.00400000	     16.05785443	      4.30610795	      5.15378977	      0.03845074	      0.94231673	     -0.32198140	     12.84198613	     -3.13700673	     -6.73080247	      9.54917615	      0.16666456	    -14.16527910	      0.00000000	      0.00000000	    -29.58294519	      6.44518858	      3.49844827	     14.87934634	      0.25969358	      3.44527447	      0.00000000	      0.00000000	    -31.09295667	     -1.40903214	    -12.49287380	      1.90732097	    -12.14206905	      5.37646979	     36.83419794	     80.52685778	      0.00000000	      0.00000000	     12.59275215	    -29.39535277	     25.99823963	     56.92868119	     72.82644700	      0.00000000	      0.00000000
      0.00800000	     15.92716032	      4.31973412	      5.21310938	      0.04405278	      0.94125427	     -0.32248134	     13.15585318	     -3.11702775	     -6.70362377	      9.66961499	      0.16876662	    -14.17635686	      0.00000000	      0.00000000	    -29.58399027	      6.42548538	      3.65302033	     15.34297090	      0.26778536	      3.24452776	      0.00000000	      0.00000000	    -30.93756157	     -1.33172539	    -12.51594114	      1.92073738	    -12.13383670	      5.31365705	     36.69658750	     80.51740620	      0.00000000	      0.00000000	     12.60755325	    -29.30308935	     25.97231544	     56.85354909	     72.83129517	      0.00000000	      0.00000000
      0.01200000	     15.80590117	      4.36033926	      5.27745802	      0.04987515	      0.94020867	     -0.32269923	     13.42277704	     -3.11843828	     -6.60462219	      9.80003178	      0.17104282	    -14.18782181	      0.00000000	      0.00000000	    -29.61644999	      6.39540827	      3.77198346	     15.77772313	      0.27537322	      3.11743344	      0.00000000	      0.00000000	    -30.78048411	     -1.31732702	    -12.55184520	      1.87417584	    -12.07819976	      5.28471104	     36.57403071	     80.51263246	      0.00000000	      0.00000000	     12.60282389	    -29.25929785	     25.96777846	     56.75832111	     72.84255218	      0.00000000	      0.00000000
      0.01600000	     15.82690403	      4.53527228	      5.51058656	      0.05520914	      0.93932182	     -0.32308185	     13.79139636	     -3.35433735	     -7.26239787	     10.61101020	      0.18519707	    -13.69690815	      0.00000000	      0.00000000	    -29.58590282	      6.36840515	      3.78165319	     16.66503430	      0.29085972	      3.24051148	      0.00000000	      0.00000000	    -30.84070267	     -1.34476950	    -12.77091993	      1.99737367	    -11.94723394	      5.16541729	     36.25799823	     80.50026554	      0.00000000	      0.00000000	     12.77195625	    -29.31341230	     26.09833052	     56.65832236	     72.99424170	      0.00000000	      0.00000000
      0.02000000	     15.73831321	      4.61288108	      5.69804326	      0.06074105	      0.93844899	     -0.32368369	     13.99090922	     -3.45548210	     -7.07214309	     10.83367997	      0.18908339	    -13.69168860	      0.00000000	      0.00000000	    -29.60863056	      6.33725114	      4.09659178	     17.15616555	      0.29943158	      3.08640100	      0.00000000	      0.00000000	    -30.75811116	     -1.27405606	    -12.92316621	      1.99179360	    -11.92263976	      5.10248765	     36.20035622	     80.45653761	      0.00000000	      0.00000000	     12.81212481	    -29.23985190	     26.03269405	     56.49977959	     73.04198099	      0.00000000	      0.00000000
      0.02400000	     15.61382522	      4.78601019	      5.63451841	      0.06663037	      0.93741954	     -0.32405480	     14.32159367	     -3.61350405	     -6.99578653	     11.29251964	      0.19709165	    -13.51625621	      0.00000000	      0.00000000	    -29.61065461	      6.50910184	      4.16945660	     17.66418216	      0.30829814	      2.88538615	      0.00000000	      0.00000000	    -30.60572562	     -1.41709048	    -12.90942013	      1.99213843	    -11.92774544	      5.07012764	     36.05609679	     80.38913111	      0.00000000	      0.00000000	     12.79598881	    -29.16394457	     26.04711691	     56.39742190	     73.14117592	      0.00000000	      0.00000000
      0.02800000	     15.47517302	      4.78091150	      5.76023569	      0.07281349	      0.93647232	     -0.32454225	     14.47584844	     -3.60657442	     -6.77862154	     11.44660177	      0.19978089	    -13.59556783	      0.00000000	      0.00000000	    -29.66436123	      6.41050485	      4.33747579	     18.00935297	      0.31432251	      2.71895242	      0.00000000	      0.00000000	    -30.38571275	     -1.31721208	    -12.92920649	      1.85589851	    -11.94840732	      5.06129167	     35.99147561	     80.38209457	      0.00000000	      0.00000000	     12.69272434	    -29.09560635	     26.05726591	     56.34836835	     73.14935291	      0.00000000	      0.00000000
      0.03200000	     15.50983789	      4.91348461	      5.87553779	      0.07834918	      0.93582517	     -0.32506352	     14.70425207	     -3.77906758	     -6.82424348	     12.20221199	      0.21296878	    -13.30338586	      0.00000000	      0.00000000	    -29.62731374	      6.42468386	      4.49702080	     18.87353551	      0.32940534	      2.43329334	      0.00000000	      0.00000000	    -30.45180042	     -1.31257827	    -13.05376333	      1.91896401	    -11.93739377	      5.03579323	     35.93181237	     80.32963416	      0.00000000	      0.00000000	     12.74664135	    -29.00183715	     25.95919501	     56.16900683	     73.28084117	      0.00000000	      0.00000000
      0.03600000	     15.33346233	      5.06737721	      5.87057554	      0.08453155	      0.93478785	     -0.32535162	     15.14298422	     -3.95261651	     -6.83472560	     13.00581377	      0.22699427	    -12.96980978	      0.00000000	      0.00000000	    -29.64071250	      6.53285732	      4.67679001	     19.25965401	      0.33614438	      2.13832933	      0.00000000	      0.00000000	    -30.20737893	     -1.44473693	    -13.06462927	      1.83749568	    -11.94360291	      5.09587085	     35.84611151	     80.25258104	      0.00000000	      0.00000000	     12.63471569	    -28.93952600	     25.85357055	     56.08301515	     73.39867179	      0.00000000	      0.00000000
      0.04000000	     15.22281641	      5.07164946	      5.91464470	      0.09059432	      0.93395637	     -0.32592960	     15.27251297	     -3.94252224	     -6.51338205	     13.30403435	      0.23219920	    -12.99578602	      0.00000000	      0.00000000	    -29.64533717	      6.49426126	      4.91771955	     19.73759543	      0.34448603	      1.79881358	      0.00000000	      0.00000000	    -30.04145653	     -1.35534288	    -13.04018595	      1.80196655	    -12.01176847	      5.09104548	     35.81272445	     80.25035176	      0.00000000	      0.00000000	     12.54393845	    -28.78806689	     25.78176502	     55.94674185	     73.41781402	      0.00000000	      0.00000000
      0.04400000	     15.18700280	      5.09645257	      6.01180740	      0.09647598	      0.93332135	     -0.32646916	     15.40165230	     -3.98310884	     -6.33084181	     13.83539929	      0.24147327	    -13.03450010	      0.00000000	      0.00000000	    -29.66238261	      6.43568519	      5.10198296	     20.30607072	      0.35440779	      1.37674422	      0.00000000	      0.00000000	    -29.98862925	     -1.25669744	    -13.05088480	      1.78202964	    -12.07544958	      5.12897567	     35.76333857	     80.23348086	      0.00000000	      0.00000000	     12.49939236	    -28.64096274	     25.65711439	     55.82039406	     73.45346585	      0.00000000	      0.00000000
      0.04800000	     15.06450545	      5.27645651	      5.94956109	      0.10294044	      0.93241089	     -0.32692072	     15.87457275	     -4.22288600	     -6.75398874	     15.02684581	      0.26226794	    -12.49233990	      0.00000000	      0.00000000	    -29.66749062	      6.58653851	      5.00259126	     20.81707934	      0.36332658	      0.89769274	      0.00000000	      0.00000000	    -29.77709572	     -1.40534698	    -13.05599815	      1.70358722	    -12.16699496	      5.33988267	     35.73532640	     80.23292832	      0.00000000	      0.00000000	     12.28380450	    -28.52499906	     25.43176117	     55.71230633	     73.61886876	      0.00000000	      0.00000000
